<?xml version="1.0" encoding="UTF-8"?>
<!DOCTYPE svg PUBLIC "-//W3C//DTD SVG 1.1//EN" "http://www.w3.org/Graphics/SVG/1.1/DTD/svg11.dtd">
<svg xmlns="http://www.w3.org/2000/svg" version="1.1" width="63px" height="62px" style="shape-rendering:geometricPrecision; text-rendering:geometricPrecision; image-rendering:optimizeQuality; fill-rule:evenodd; clip-rule:evenodd" xmlns:xlink="http://www.w3.org/1999/xlink">
<g><path style="opacity:0.266" fill="#fffdf3" d="M 22.5,-0.5 C 28.1667,-0.5 33.8333,-0.5 39.5,-0.5C 42.4081,0.95406 45.4081,2.45406 48.5,4C 49.3805,4.7083 50.0472,5.54163 50.5,6.5C 52.7157,7.20261 54.549,8.53594 56,10.5C 58.7401,14.6467 60.9067,18.98 62.5,23.5C 62.5,28.1667 62.5,32.8333 62.5,37.5C 58.9283,49.4054 51.2616,57.4054 39.5,61.5C 33.8333,61.5 28.1667,61.5 22.5,61.5C 10.7384,57.4054 3.07173,49.4054 -0.5,37.5C -0.5,32.8333 -0.5,28.1667 -0.5,23.5C 3.07173,11.5946 10.7384,3.59457 22.5,-0.5 Z"/></g>
<g><path style="opacity:1" fill="#fcd81d" d="M 50.5,6.5 C 63.7285,20.182 64.8951,34.8487 54,50.5C 40.7616,62.4497 26.5949,63.6164 11.5,54C -1.64191,40.4409 -2.80858,25.9409 8,10.5C 21.1529,-1.27753 35.3196,-2.61086 50.5,6.5 Z"/></g>
<g><path style="opacity:1" fill="#f2ccbe" d="M 43.5,19.5 C 48.3384,19.9114 53.0051,20.5781 57.5,21.5C 53.8183,21.6653 50.1516,21.4986 46.5,21C 45.2625,20.7679 44.2625,20.2679 43.5,19.5 Z"/></g>
<g><path style="opacity:1" fill="#b61730" d="M 43.5,19.5 C 44.2625,20.2679 45.2625,20.7679 46.5,21C 50.1516,21.4986 53.8183,21.6653 57.5,21.5C 57.8222,27.358 57.4889,33.0247 56.5,38.5C 53.2869,38.19 50.2869,38.5233 47.5,39.5C 45.5853,39.2155 43.9187,39.5489 42.5,40.5C 35.8689,41.331 29.2022,41.6643 22.5,41.5C 19.5641,40.5942 16.5641,39.9275 13.5,39.5C 11.0521,38.5269 8.38544,38.1936 5.5,38.5C 4.51114,33.0247 4.1778,27.358 4.5,21.5C 7.7131,21.81 10.7131,21.4767 13.5,20.5C 15.1172,19.962 16.7839,19.6287 18.5,19.5C 26.8333,18.1667 35.1667,18.1667 43.5,19.5 Z"/></g>
<g><path style="opacity:1" fill="#e7a9ae" d="M 43.5,19.5 C 35.1667,18.1667 26.8333,18.1667 18.5,19.5C 22.2032,17.945 26.2032,17.2783 30.5,17.5C 35.1071,17.3164 39.4405,17.983 43.5,19.5 Z"/></g>
<g><path style="opacity:1" fill="#fefaec" d="M 13.5,20.5 C 10.7131,21.4767 7.7131,21.81 4.5,21.5C 9.05994,14.1165 15.3933,8.61646 23.5,5C 31.4091,3.50006 38.7424,4.8334 45.5,9C 30.4016,2.81216 18.4016,6.47883 9.5,20C 10.7932,20.49 12.1266,20.6567 13.5,20.5 Z"/></g>
<g><path style="opacity:1" fill="#f3d5dc" d="M 17.5,23.5 C 19.337,23.6395 19.6704,24.3061 18.5,25.5C 17.7025,25.0431 17.3691,24.3764 17.5,23.5 Z"/></g>
<g><path style="opacity:1" fill="#f7e3e7" d="M 35.5,32.5 C 34.4151,34.5822 32.9151,34.9156 31,33.5C 30.7638,31.236 30.2638,29.0693 29.5,27C 30.0465,26.0754 30.7132,25.2421 31.5,24.5C 32.354,25.5217 33.354,26.3551 34.5,27C 32.8446,28.4443 32.178,30.2776 32.5,32.5C 33.5,32.5 34.5,32.5 35.5,32.5 Z"/></g>
<g><path style="opacity:1" fill="#ce6079" d="M 17.5,26.5 C 17.5,29.1667 17.5,31.8333 17.5,34.5C 16.8333,34.5 16.1667,34.5 15.5,34.5C 15.8333,33.8333 16.1667,33.1667 16.5,32.5C 16.2053,30.2646 16.5386,28.2646 17.5,26.5 Z"/></g>
<g><path style="opacity:1" fill="#f7e7eb" d="M 17.5,26.5 C 18.7479,27.3339 19.4146,28.6672 19.5,30.5C 19.4146,32.3328 18.7479,33.6661 17.5,34.5C 17.5,31.8333 17.5,29.1667 17.5,26.5 Z"/></g>
<g><path style="opacity:1" fill="#dc8d9e" d="M 45.5,26.5 C 45.5,29.1667 45.5,31.8333 45.5,34.5C 44.8333,33.8333 44.1667,33.1667 43.5,32.5C 43.5,31.1667 43.5,29.8333 43.5,28.5C 44.1667,27.8333 44.8333,27.1667 45.5,26.5 Z"/></g>
<g><path style="opacity:1" fill="#f4d8dd" d="M 45.5,26.5 C 51.9049,25.4062 54.2382,28.0729 52.5,34.5C 51.5,34.5 50.5,34.5 49.5,34.5C 49.7989,32.396 49.4656,30.396 48.5,28.5C 48.0358,30.9749 47.0358,32.9749 45.5,34.5C 45.5,31.8333 45.5,29.1667 45.5,26.5 Z"/></g>
<g><path style="opacity:1" fill="#f5dce1" d="M 43.5,28.5 C 43.5,29.8333 43.5,31.1667 43.5,32.5C 40.9549,35.0748 38.2882,35.0748 35.5,32.5C 35.9016,26.4083 38.5683,25.0749 43.5,28.5 Z"/></g>
<g><path style="opacity:1" fill="#bb293d" d="M 38.5,28.5 C 39.5,28.5 40.5,28.5 41.5,28.5C 41.6132,33.7859 40.2798,34.4525 37.5,30.5C 37.8627,29.8165 38.1961,29.1499 38.5,28.5 Z"/></g>
<g><path style="opacity:1" fill="#f5dbe1" d="M 16.5,32.5 C 16.1667,33.1667 15.8333,33.8333 15.5,34.5C 13.5,34.5 11.5,34.5 9.5,34.5C 9.5,31.1667 9.5,27.8333 9.5,24.5C 10.5,24.5 11.5,24.5 12.5,24.5C 12.5,27.1667 12.5,29.8333 12.5,32.5C 13.8333,32.5 15.1667,32.5 16.5,32.5 Z"/></g>
<g><path style="opacity:1" fill="#f3d4da" d="M 20.5,26.5 C 27.1071,24.749 29.6071,27.0823 28,33.5C 26.6439,34.3802 25.1439,34.7135 23.5,34.5C 23.5,35.5 23.5,36.5 23.5,37.5C 22.5,37.5 21.5,37.5 20.5,37.5C 20.5,33.8333 20.5,30.1667 20.5,26.5 Z"/></g>
<g><path style="opacity:1" fill="#b71e36" d="M 23.5,28.5 C 24.5,28.5 25.5,28.5 26.5,28.5C 26.8841,30.6648 26.2174,32.3315 24.5,33.5C 23.5481,31.9547 23.2148,30.288 23.5,28.5 Z"/></g>
<g><path style="opacity:1" fill="#fef4cd" d="M 5.5,38.5 C 8.38544,38.1936 11.0521,38.5269 13.5,39.5C 11.712,39.2148 10.0453,39.5481 8.5,40.5C 9.64048,42.0778 10.1405,43.7445 10,45.5C 8.48941,43.1384 6.98941,40.8051 5.5,38.5 Z"/></g>
<g><path style="opacity:1" fill="#f0cac7" d="M 42.5,40.5 C 38.966,42.0476 35.1327,42.7143 31,42.5C 27.9792,42.4978 25.1459,42.1644 22.5,41.5C 29.2022,41.6643 35.8689,41.331 42.5,40.5 Z"/></g>
<g><path style="opacity:1" fill="#fff8dc" d="M 47.5,39.5 C 50.2869,38.5233 53.2869,38.19 56.5,38.5C 52.8063,48.3752 45.8063,53.8752 35.5,55C 43.4821,52.5074 49.4821,47.6741 53.5,40.5C 51.604,39.5344 49.604,39.2011 47.5,39.5 Z"/></g>
</svg>
